<?xml version="1.0" encoding="UTF-8"?>
<svg id="_레이어_1" data-name="레이어 1" xmlns="http://www.w3.org/2000/svg" viewBox="0 0 913.58 162.57">
  <defs>
    <style>
      .cls-1 {
        fill: #6b1d2a;
      }
    </style>
  </defs>
  <g>
    <path class="cls-1" d="M851.84,134.93c2.55.13,6.93,2.47,8.08,4.51,3.91,6.96.52,15.34-6.59,18.93-10.1,5.09-28,6.1-37.38-.08-3.99-2.63-5.68-9.02-1.58-12.27,2.46-1.95,6.11-3.33,9.54-4.95-2.89-1.68-7.9-3.97-6.77-8.36.75-2.9,4.68-5.4,7.83-7.74-5.56-2.27-9.82-6.74-10.28-12.13-.54-6.4,2.91-11.23,8.79-14.04,6.39-3.05,13.4-2.63,20.51-1.91,8.26.84,18.22-1.06,17.76,1.81-.13.78-1.25,2.46-2.01,2.55l-6.68.78c2.6,4.52,3.97,8,2.79,12.79-2.66,10.75-17.13,11.47-26.19,11.46-2.26,0-6.33,2.41-4.52,5.16,1.21,1.84,6.06,2.41,8.58,2.54l18.13.93ZM844.26,118.55c3.28-4.42,2.89-11.31-.33-15.23-3.94-4.8-12.47-4.96-16.38-.15-3.43,4.2-3.53,11.54-.14,15.8,3.93,4.93,12.89,4.92,16.85-.42ZM853.45,145.84c-.47-1.5-3.96-3.53-5.62-3.58l-18.27-.64c-5.5-.19-8.66,4.85-8.5,8.17.41,8.36,16.2,11.61,27.44,6.52,3.68-1.67,6.52-5.48,4.95-10.48Z"/>
    <g>
      <g>
        <path class="cls-1" d="M575.41,108.61c1.4-31.47,1.92-43.51-23.51-62.24-10.68-7.86-22.07-13.85-35.2-16.73-46.72-10.24-108.31-1.32-139.65,38.09-3.52,4.43-5.6,9.58-8.27,15.08-10.99-36.92-56.8-38.18-86.92-31.2l-24.5,5.68c-12.56,2.91-24.86,5.11-37.66,7.24-3.42.57-6.45.89-10.1.54l19.4-5.41,30.17-7.94c27.05-7.12,53.51-13.12,81.05-18.9,29.56-6.2,58.38-10.73,88.4-14.46,52.7-6.55,101.61-5.98,152.86,7.1,12.6,3.22,24.3,6.47,36.47,10.68l26.18,9.07,60.79,21.1c-11.21-1.65-21.6-3.81-32.39-6.58-8.5-2.19-16.51-5.22-24.83-8.06-19.37-6.61-47.61-11.37-58.67,10.86-4.79,9.63-6.26,20.07-6.32,30.87l-.27,48.71h-21.35s-.33-63.76-.33-63.76c-.05-9.72-6.63-16.85-11.04-25.07,13.58,12.36,22.08,29.2,24.82,47.33l.86,7.97Z"/>
        <path class="cls-1" d="M578.99,18.9c-46.31-13.83-106.63-13.15-154.19-7.36-30.1,3.66-58.66,8.81-87.94,15.96l-50.08,12.22-39.58,10.46-48.98,12.69-19.25,3.92c-2.84.58-5.79.68-8.36.28l14.19-3.44,68.8-21.32,64.75-19.51c26.96-8.12,53.45-13.32,81.41-17.67,43.87-6.82,87.07-6.85,130.98,0,26.53,4.13,51.59,10,76.88,18.43l19.49,6.5,51.26,18.4,42.73,14.64,13.75,4.17-8.16-.54-18.36-4.77c-13.12-3.41-25.46-8.16-38.23-12.71l-27.2-9.69-21.3-7.71-13.79-4.35-28.8-8.6Z"/>
      </g>
      <path class="cls-1" d="M666.5,129.32c-4.49,13.35-23.16,12.87-34.96,12.77l-25.3-.22c-.55,0-1.61-1.91-1.23-1.97l2.73-.48c2.98-.52,5.2-1.53,5.21-4.96l.04-53.95c-1.57-1.25-4.31-2.18-5.89-2.39l-2.16-.28c-.36-.05-.4-1.68-.04-1.77s1.5-.32,1.94-.32l36.49.07c5.65.01,11.84,1.53,16.23,4.86,6.65,5.03,6.19,15.24.14,20.77-3.03,2.77-7.33,4.14-11.03,5.65,6.46,1.06,12.4,2.57,16.03,7.52,3.12,4.26,3.47,9.73,1.79,14.71ZM651.97,94.73c1.31-7.37-2.63-14.18-10.3-15.25-5.54-.77-10.93-.53-16.56.08l.12,26.19c11.23.08,24.42,2.02,26.74-11.02ZM655.34,124.73c.22-7.31-4.17-13.2-11.38-14.46-6.18-1.09-12.39-.97-18.91-.77l.15,28.23c6.15,1.72,11.69,1.72,17.71.83,7.2-1.06,12.19-5.92,12.43-13.83Z"/>
      <path class="cls-1" d="M772.21,142.75c-8.74.12-16.28-3.67-19.64-11.4-3.05-7.01-3.5-15.82.35-22.69,7.37-13.16,24.19-16.29,37.02-8.07l.14-18.4c.04-5.5-6.08-2.95-7.36-6.27l18-2.5-.03,62.09c0,2.45,1.58,3.85,4.49,3.7l1.87,2.36-17.12.38-.43-6.76c-4.62,4.94-9.83,7.46-17.31,7.56ZM775.84,137.32c5.5.2,12.45-2.86,13.46-8.95,1.08-6.5.8-13.35.63-19.96-2.42-5.45-7.27-8.18-13.13-8.05-6.87.15-12.49,4.22-14.03,11.06-2.29,10.17-.5,25.4,13.08,25.89Z"/>
      <path class="cls-1" d="M884.71,132.57c6.85,7.38,18.71,4.11,26.97,1.01.09.73-.54,3.87-1.58,4.52-11.85,7.38-34.86,7.14-40.2-8.87-2.43-7.27-2.37-15.93,1.87-22.52,8.32-12.94,31.63-14.23,39.51-1.89,2.39,3.74,3.03,8.31,1.38,12.62l-32.31.18c-.14,5.84.61,10.91,4.36,14.95ZM902.48,113.91c.89-3.83.24-7.92-1.8-10.32-3.78-4.46-9.7-4.82-14.58-2.2-4.01,2.16-6,7.09-5.56,12.57l21.93-.05Z"/>
      <path class="cls-1" d="M695.64,139.49l3.11.34c.44.05.17.84-.02,1.92l-21.34.18c-1.41-.84-2.59-2.37-.03-1.97,2.33-1.01,4.28-2.47,4.29-4.3l.11-30.37c0-2.42-1.59-4.2-4.25-4.41l-2-1.94,16.22-2.33,1.07,8.8c5.76-6.49,11.85-10.61,20.94-8.6l-.45,12.57c-4.42-2.35-5.66-8.42-14.97-4.7-3.03,1.21-5.97,5.32-5.97,9.29v21.86c0,1.35,2.06,3.54,3.29,3.67Z"/>
      <path class="cls-1" d="M721.11,141.86c-.54,0-1.81-1.8-1.43-1.87l2.35-.45c1.51-.29,3.75-2.11,3.75-3.91l-.03-31.04c0-5.03-6.29-2.43-6.81-5.55l17.72-2.82.02,39.41c0,2.25,1.73,3.61,3.83,3.96l2.21.37c.38.06-.92,1.9-1.3,1.9h-20.3Z"/>
    </g>
  </g>
  <g>
    <path class="cls-1" d="M468.79,134.82c3.33.15,7.86,2.84,9.12,5.51,3.26,6.87,0,14.55-6.66,17.79-11.02,5.36-23.99,5.86-35.47,1.58-4.73-1.76-8.29-7.9-4.8-12.35,2.14-2.73,6.68-4.36,10.22-5.93l-5.02-3.54c-2.09-1.48-2.41-6.29-.19-7.98l6.79-5.18c-6.34-1.79-10.26-6.65-10.66-12.2-.42-5.88,2.61-10.72,8.32-13.5,6.38-3.1,13.39-2.96,20.53-2.16,8.8.99,18.03-1.18,17.92,1.87-.03.83-1.3,2.42-2.09,2.54l-5.75.84c1.85,4.41,3.07,7.96,2.16,12.05-2.3,10.3-15.91,12.17-25.55,11.97-2.31-.05-6.94,2.11-5.41,5.09,1.23,2.39,6.56,2.7,9.34,2.82l17.19.76ZM461.7,118.14c2.83-4.2,2.77-10.77-.12-14.57-4.06-5.32-13.5-5.16-17.33.34-2.9,4.16-2.85,10.89.23,14.89,3.99,5.19,13.33,5.12,17.23-.66ZM471.21,146.14c-.62-1.82-4.37-3.9-6.3-3.96l-17.29-.52c-4.07-.12-7.46,1.91-8.66,5.56s1.08,7.61,4.84,9.3c7.12,3.21,15.53,3.19,22.56-.34,3.53-1.77,6.52-5.11,4.84-10.05Z"/>
    <path class="cls-1" d="M199.52,134.51c3.84.17,9.31.94,11.65,3.44,6.19,6.63,2.44,17.24-5.34,20.57-16.46,7.06-42.78,4.78-41.02-8.35.23-1.73,2.28-4.81,3.87-5.54l8.2-3.8c-3.52-1.15-7.72-3.2-7.08-7.28.58-3.69,4.4-6.25,8.19-8.61-5.8-2-10.13-6.55-10.55-12.07-.52-6.83,3.04-12.04,9.55-14.49s13.46-2.18,21-1.43c3.92.39,11.21.06,14.71-.06.91-.03,1.82,2.62,1.18,3.08s-1.95,1.02-2.97,1.26l-4.78,1.15c5.17,8.19,2.51,17.58-6.17,21.46-4.97,2.22-10.72,2.45-16.47,2.12-2.3-.13-6.11,2.26-6.25,4.38-.09,1.4,3.02,3.34,4.36,3.4l17.94.78ZM196.29,119.51c4.19-4.38,4.06-11.91.49-16.16-3.99-4.75-12.36-5.13-16.45-.38-3.49,4.05-3.74,11.23-.51,15.47,3.64,4.77,12.02,5.72,16.47,1.07ZM203.63,154.86c3.25-2.44,4.16-7.5,1.85-10.32-1.05-1.28-4.67-2.46-6.34-2.48l-19.51-.3c-2.25-.03-5.55,3.43-5.9,5.49s.82,5.99,2.74,7.43c6.68,5,19.87,5.66,27.15.19Z"/>
    <path class="cls-1" d="M143.62,110.98c-.01-5.24-3.12-8.11-8.01-8.56-4.52-.42-13.42,1.28-14.22,7.27-1.13,8.45-.34,17-.57,25.97-.06,2.12,1.81,3.62,3.62,3.94l2.32.41c.4.07.13.54-.29,1.79l-21.22.02c-.55,0-1.86-1.82-1.46-1.88l2.33-.36c1.78-.27,3.91-1.84,3.91-3.84l-.04-31.49c0-1.45-1.82-3.21-3.42-3.79-2.71-.55-2.35-1.39-.15-1.83l13.39-2.09,1.25,7.21c6.74-6.25,14.9-9.19,23.84-6.65,5.17,1.47,9.42,5.99,9.44,11.76l.09,26.8c0,2.29,1.94,3.61,4.15,3.96l2.13.33c.37.06-.96,1.83-1.34,1.83l-20.39.02c-.47,0-1.69-1.69-1.31-1.79l2.07-.52,2.85-.72c.75-.19,1.09-2.27,1.09-3.2l-.06-24.58Z"/>
    <path class="cls-1" d="M408.62,110.97c-.04-6.09-4.46-8.92-10.07-8.69-4.11.17-11.98,1.67-12.44,7.35-.71,8.71-.46,19.07-.5,27.76.82.84,3,1.99,3.9,2.17l2.2.44c.39.08-.9,1.75-1.38,1.75l-19.76.11c-2.06-1.06-2.58-2.15.13-2.06,1.62-.57,4.08-2,4.09-3.14v-34.06s-6.68-3.5-6.68-3.5l16.76-2.69,1.17,7.26c6.36-5.87,14.61-8.97,23.11-6.81,5.53,1.4,10.06,5.99,10.06,11.91v26.69c0,2.19,2.17,3.74,4.15,4.34l2.09.64c.5.15-1.24,1.38-2.14,1.38l-19.4.02c-.49-.77-.96-1.36-.68-1.47l1.86-.71c1.51-.57,3.69-2.25,3.68-3.95l-.15-24.76Z"/>
    <path class="cls-1" d="M42.25,133.17c-8.09,12.09-28.69,11.22-41.42,7.11L0,126.05c-.03-.44,2.03-1.08,2.18-.67l.77,2.03c1.07,2.82,2.76,6.83,5.21,8.56,9.73,6.89,24.62,3.16,26.37-5.37,4.01-19.63-38.71-18.28-32.77-43.12,3.52-14.73,27.15-14.99,39.17-11.12l.47,10.97c.39,9-4.98-4.8-7.07-6.41-6.97-5.35-21.79-3.57-23.42,5.4-2.32,12.75,16.39,14.26,28.99,25.93,5.96,5.52,6.85,14.21,2.35,20.92Z"/>
    <path class="cls-1" d="M293.97,136.47c-5.33,4.92-12.43,7.23-20.2,5.95-4.61-.76-8.51-3.73-9.25-7.66-2.89-15.37,19.88-15.09,29.5-19.97,1.06-3.3.82-9.28-2.11-11.22-7.5-4.98-16.34-1.6-22.49,5.17-1.36-1.42-1.27-6.69.27-8.06,8.15-4.41,17.38-5.63,26-3.33,5.14,1.37,9.08,5.59,9.07,11.02l-.03,26.23c0,6.21,6.62,3.15,7.39,6.45-5.23.81-15.25,3.34-18.14-4.57ZM294.33,131.01l-.16-12.85c-6.87,2.69-18.88,5.02-19.47,11.9-.15,1.72,1.21,5.45,2.85,6.26,6.2,3.04,13.48.5,16.79-5.31Z"/>
    <path class="cls-1" d="M60.29,142.21c-5.31-1.07-8.57-5.13-8.8-9.4-.64-11.79,15.17-13.74,26.96-16.71,1.96-.49,3.36-2.38,3.31-4.55-.09-3.78-1.24-7.81-4.48-9.19-6.69-2.85-13.51-.74-18.6,4.13-.53.51-1.7,1.15-2.98,1.88l.51-7.6c8.23-4.16,17.44-5.63,26.34-3.48,5.99,1.45,9.46,6.09,9.42,12.13l-.16,25.15c-.02,2.58,2.53,4.51,4.69,4.88l2.16.37c5.05.86-14.27,6.65-17.32-3.41-5.92,4.38-12.89,7.43-21.04,5.79ZM80.7,131.45c1.48-4.05.57-9.12.43-13.22-7.03,2.74-17.57,4.22-19.08,11.06-.44,2,.69,5.85,2.85,6.9,4.86,2.36,13.6,1.3,15.81-4.75Z"/>
    <path class="cls-1" d="M331.34,130.11c5.45,9.54,18.71,7.39,28.11,3.71,2.02,9.38-30.62,15.03-39.52-1.49-3.9-7.24-4.43-17.38,0-24.66,7.03-11.54,23.09-14.6,34.23-7.96,6.44,3.84,9.33,10.41,7.03,17.71l-32.48.13c-.04,4.42.55,8.91,2.63,12.57ZM350.71,113.91c.71-3.87.63-7.09-1.05-9.81-3.46-5.61-14.26-5.54-18.09-.42-2.15,2.87-2.73,6.61-2.4,10.24h21.54Z"/>
    <path class="cls-1" d="M253.81,137.45c-7.55,7.45-22.7,5.83-31.89,3.05l-.02-9.86c0-.38,1.32-1.77,1.48-1.45l.82,1.67c1.57,3.18,3.96,6.43,7.54,7.63,6.36,2.13,15.78,1.08,16.83-5.64,1.16-7.43-12.94-8.48-22.19-14.97-5.43-3.8-6.06-11.46-1.36-16.24,7.15-7.27,19.82-5.99,29.23-3.78l.37,10.12c.02.41-1.95.84-2.12.46l-.87-2.02c-.66-1.53-2.71-4.63-4.2-5.34-7.45-3.56-17.38-1.04-17.34,4.92.01,1.61,2.15,4.51,3.8,5.21l16.29,6.89c3.39,1.43,6.31,5.31,6.84,8.16.72,3.83-.42,8.41-3.23,11.18Z"/>
  </g>
</svg>
